# xmcd
#
# Track frame offsets: 
#        182
#        10820
#        20635
#        32855
#        44910
#        55567
#        70540
#        83932
#        95972
#        105867
#        116140
#        125915
#        138837
#        151100
#        162365
#        172305
#        184550
#        199375
#        213157
#        230410
#        244107
#        259602
#        275517
#        292752
#        311627
#        327702
#        348162
#
# Disc length: 4646 seconds
#
# Revision: 1
# Processed by: cddbd v1.5.2PL0 Copyright (c) Steve Scherf et al.
# Submitted via: ExactAudioCopyFreeDBPlugin 1.0
#
DISCID=8c12241b
DTITLE=Ray Charles - Ray Charles:  The Complete Country and Western Reco
DTITLE=rdings, 1959-1986
DYEAR=1998
DGENRE=Country
TTITLE0=I'm Movin' On
TTITLE1=Busted
TTITLE2=No One to Cry To
TTITLE3=Move it on Over
TTITLE4=Love's Gonna Live Here (Swingova)
TTITLE5=I'm a Fool to Care
TTITLE6=Crying Time
TTITLE7=Together Again
TTITLE8=I've Got a Tiger By theTail (Swingova)
TTITLE9=I Don't Care
TTITLE10=Blue Moon of Kentucky (Swingova)
TTITLE11=Don't Let Her Know
TTITLE12=Please Say You're Fooling
TTITLE13=She's Lonesome Again
TTITLE14=A Born Loser
TTITLE15=A Girl I Used to Know
TTITLE16=Here We Go Again
TTITLE17=When I Stop Dreamin'
TTITLE18=If You Were Mine
TTITLE19=Your Love is So Doggone Good
TTITLE20=Don't Change on Me
TTITLE21=Till I Can't Take it Anymore
TTITLE22=You've Still Got a Place in My Heart
TTITLE23=I Keep it Hid
TTITLE24=Sweet Memories
TTITLE25=Good Morning Dear
TTITLE26=blank
EXTD=
EXTT0=
EXTT1=
EXTT2=
EXTT3=
EXTT4=
EXTT5=
EXTT6=
EXTT7=
EXTT8=
EXTT9=
EXTT10=
EXTT11=
EXTT12=
EXTT13=
EXTT14=
EXTT15=
EXTT16=
EXTT17=
EXTT18=
EXTT19=
EXTT20=
EXTT21=
EXTT22=
EXTT23=
EXTT24=
EXTT25=
EXTT26=
PLAYORDER=
